<svg width="24" height="24" viewBox="0 0 24 24" fill="none" xmlns="http://www.w3.org/2000/svg">
<path d="M21.7693 18.7033C21.4031 19.5418 20.9695 20.3136 20.4672 21.0232C19.7825 21.9906 19.2219 22.6602 18.7899 23.032C18.1202 23.6424 17.4026 23.955 16.6342 23.9728C16.0826 23.9728 15.4173 23.8172 14.6429 23.5017C13.866 23.1876 13.152 23.032 12.4992 23.032C11.8145 23.032 11.0802 23.1876 10.2947 23.5017C9.50809 23.8172 8.87439 23.9816 8.38988 23.9979C7.65302 24.0291 6.91855 23.7076 6.18543 23.032C5.71751 22.6276 5.13224 21.9343 4.43112 20.9521C3.67886 19.9033 3.0604 18.687 2.57589 17.3004C2.057 15.8026 1.79688 14.3523 1.79688 12.9482C1.79688 11.3398 2.14759 9.95259 2.85006 8.79011C3.40215 7.85636 4.13661 7.11979 5.05585 6.57906C5.97509 6.03834 6.96833 5.76279 8.03797 5.74516C8.62324 5.74516 9.39074 5.92456 10.3445 6.27715C11.2956 6.63091 11.9063 6.81031 12.174 6.81031C12.3742 6.81031 13.0526 6.60054 14.2027 6.18233C15.2902 5.79449 16.2081 5.63391 16.9601 5.69716C18.9977 5.86012 20.5285 6.6561 21.5466 8.09013C19.7242 9.18432 18.8228 10.7169 18.8407 12.6829C18.8572 14.2142 19.4178 15.4886 20.5195 16.5004C21.0189 16.97 21.5765 17.333 22.1969 17.5907C22.0623 17.9774 21.9203 18.3477 21.7693 18.7033V18.7033ZM17.0961 0.480137C17.0961 1.68041 16.6536 2.8011 15.7716 3.8384C14.7072 5.07155 13.4198 5.78412 12.0236 5.67168C12.0058 5.52769 11.9955 5.37614 11.9955 5.21688C11.9955 4.06462 12.5017 2.83147 13.4006 1.82321C13.8494 1.3127 14.4202 0.888228 15.1123 0.549615C15.803 0.216055 16.4563 0.031589 17.0707 0C17.0887 0.160458 17.0961 0.320926 17.0961 0.480121V0.480137Z" fill="#33384B"/>
</svg>
