<svg width="105" height="11" viewBox="0 0 105 11" fill="none" xmlns="http://www.w3.org/2000/svg">
<path d="M1.66087 0.408025L4.49467 8.70064H4.60902L7.44283 0.408025H9.10334L5.43928 10.5898H3.66442L0.000355121 0.408025H1.66087ZM10.304 10.5898V2.95348H11.7905V10.5898H10.304ZM11.0547 1.77521C10.7962 1.77521 10.5741 1.68904 10.3885 1.51669C10.2062 1.34103 10.1151 1.13222 10.1151 0.890269C10.1151 0.645004 10.2062 0.436198 10.3885 0.263849C10.5741 0.0881862 10.7962 0.000354886 11.0547 0.000354886C11.3132 0.000354886 11.5336 0.0881862 11.7159 0.263849C11.9015 0.436198 11.9943 0.645004 11.9943 0.890269C11.9943 1.13222 11.9015 1.34103 11.7159 1.51669C11.5336 1.68904 11.3132 1.77521 11.0547 1.77521ZM16.9311 10.744C16.1787 10.744 15.5308 10.5832 14.9872 10.2617C14.447 9.93691 14.0294 9.48118 13.7344 8.89453C13.4427 8.30457 13.2969 7.61352 13.2969 6.82138C13.2969 6.03918 13.4427 5.34979 13.7344 4.7532C14.0294 4.1566 14.4403 3.69093 14.9673 3.35618C15.4976 3.02143 16.1174 2.85405 16.8267 2.85405C17.2576 2.85405 17.6752 2.92531 18.0795 3.06783C18.4839 3.21035 18.8468 3.43407 19.1683 3.73899C19.4898 4.04392 19.7434 4.43999 19.929 4.9272C20.1146 5.4111 20.2074 5.99941 20.2074 6.69212V7.21911H14.1371V6.10547H18.7507C18.7507 5.71437 18.6712 5.36802 18.5121 5.06641C18.353 4.76148 18.1293 4.52119 17.8409 4.34553C17.5559 4.16986 17.2211 4.08203 16.8366 4.08203C16.419 4.08203 16.0545 4.18478 15.7429 4.39027C15.4347 4.59245 15.196 4.8576 15.027 5.18572C14.8613 5.51053 14.7784 5.86352 14.7784 6.24467V7.1147C14.7784 7.62512 14.8679 8.0593 15.0469 8.41726C15.2292 8.77521 15.4827 9.04865 15.8075 9.23757C16.1323 9.42318 16.5118 9.51598 16.946 9.51598C17.2277 9.51598 17.4846 9.47621 17.7166 9.39666C17.9486 9.3138 18.1491 9.19117 18.3182 9.02876C18.4872 8.86636 18.6165 8.66584 18.706 8.4272L20.1129 8.68075C20.0002 9.09505 19.7981 9.45798 19.5064 9.76953C19.218 10.0778 18.8551 10.3181 18.4176 10.4904C17.9834 10.6594 17.4879 10.744 16.9311 10.744ZM23.3482 10.5898L21.101 2.95348H22.6373L24.1337 8.56143H24.2083L25.7097 2.95348H27.2459L28.7374 8.53658H28.812L30.2985 2.95348H31.8347L29.5925 10.5898H28.0762L26.525 5.07635H26.4107L24.8596 10.5898H23.3482ZM45.2257 3.7191H43.6745C43.6149 3.38767 43.5038 3.096 43.3414 2.8441C43.179 2.59221 42.9802 2.37843 42.7449 2.20277C42.5095 2.02711 42.246 1.89453 41.9544 1.80504C41.666 1.71555 41.3594 1.67081 41.0346 1.67081C40.448 1.67081 39.9226 1.8183 39.4586 2.11328C38.9979 2.40826 38.6333 2.84079 38.3649 3.41087C38.0997 3.98094 37.9672 4.67696 37.9672 5.49893C37.9672 6.32753 38.0997 7.02687 38.3649 7.59695C38.6333 8.16702 38.9996 8.59789 39.4636 8.88956C39.9276 9.18123 40.4496 9.32706 41.0297 9.32706C41.3511 9.32706 41.6561 9.28397 41.9444 9.1978C42.2361 9.10831 42.4996 8.97739 42.7349 8.80504C42.9702 8.63269 43.1691 8.42223 43.3315 8.17365C43.4972 7.92176 43.6116 7.6334 43.6745 7.30859L45.2257 7.31357C45.1428 7.81404 44.9821 8.27474 44.7434 8.69567C44.5081 9.11328 44.2048 9.47455 43.8336 9.77947C43.4657 10.0811 43.0448 10.3147 42.5708 10.4805C42.0969 10.6462 41.5798 10.729 41.0197 10.729C40.1381 10.729 39.3526 10.5202 38.6632 10.1026C37.9738 9.6817 37.4302 9.08014 37.0325 8.29794C36.6381 7.51574 36.4409 6.58274 36.4409 5.49893C36.4409 4.41181 36.6397 3.47881 37.0375 2.69993C37.4352 1.91773 37.9788 1.31783 38.6681 0.900213C39.3575 0.479285 40.1414 0.268821 41.0197 0.268821C41.56 0.268821 42.0637 0.346709 42.5311 0.502486C43.0017 0.654948 43.4243 0.880326 43.7988 1.17862C44.1734 1.4736 44.4833 1.83487 44.7285 2.26243C44.9738 2.68667 45.1395 3.17223 45.2257 3.7191ZM50.0108 10.744C49.2949 10.744 48.6702 10.5799 48.1365 10.2518C47.6029 9.92365 47.1886 9.46461 46.8936 8.87464C46.5987 8.28468 46.4512 7.59529 46.4512 6.80646C46.4512 6.01432 46.5987 5.32161 46.8936 4.72834C47.1886 4.13506 47.6029 3.67436 48.1365 3.34624C48.6702 3.01811 49.2949 2.85405 50.0108 2.85405C50.7267 2.85405 51.3515 3.01811 51.8851 3.34624C52.4187 3.67436 52.833 4.13506 53.128 4.72834C53.423 5.32161 53.5705 6.01432 53.5705 6.80646C53.5705 7.59529 53.423 8.28468 53.128 8.87464C52.833 9.46461 52.4187 9.92365 51.8851 10.2518C51.3515 10.5799 50.7267 10.744 50.0108 10.744ZM50.0158 9.49609C50.4798 9.49609 50.8643 9.37346 51.1692 9.1282C51.4741 8.88293 51.6995 8.55646 51.8453 8.14879C51.9945 7.74112 52.0691 7.29202 52.0691 6.80149C52.0691 6.31428 51.9945 5.86683 51.8453 5.45916C51.6995 5.04818 51.4741 4.71839 51.1692 4.46982C50.8643 4.22124 50.4798 4.09695 50.0158 4.09695C49.5485 4.09695 49.1607 4.22124 48.8525 4.46982C48.5475 4.71839 48.3205 5.04818 48.1713 5.45916C48.0255 5.86683 47.9526 6.31428 47.9526 6.80149C47.9526 7.29202 48.0255 7.74112 48.1713 8.14879C48.3205 8.55646 48.5475 8.88293 48.8525 9.1282C49.1607 9.37346 49.5485 9.49609 50.0158 9.49609ZM56.5659 6.05575V10.5898H55.0794V2.95348H56.5062V4.19638H56.6007C56.7763 3.79202 57.0514 3.46721 57.426 3.22195C57.8038 2.97668 58.2794 2.85405 58.8528 2.85405C59.3732 2.85405 59.8289 2.96342 60.22 3.18217C60.6111 3.39761 60.9144 3.71911 61.1298 4.14666C61.3452 4.57422 61.4529 5.10286 61.4529 5.7326V10.5898H59.9664V5.91158C59.9664 5.35807 59.8223 4.92554 59.5339 4.61399C59.2456 4.29912 58.8495 4.14169 58.3457 4.14169C58.001 4.14169 57.6944 4.21626 57.426 4.36541C57.1608 4.51456 56.9503 4.73331 56.7946 5.02166C56.6421 5.3067 56.5659 5.6514 56.5659 6.05575ZM66.8608 2.95348V4.14666H62.6896V2.95348H66.8608ZM63.8082 1.12393H65.2947V8.34766C65.2947 8.63601 65.3378 8.8531 65.424 8.99893C65.5102 9.14145 65.6212 9.23923 65.7571 9.29226C65.8963 9.34197 66.0471 9.36683 66.2095 9.36683C66.3288 9.36683 66.4332 9.35855 66.5227 9.34197C66.6122 9.3254 66.6818 9.31214 66.7315 9.3022L67 10.5302C66.9138 10.5633 66.7912 10.5965 66.6321 10.6296C66.473 10.6661 66.2741 10.686 66.0355 10.6893C65.6444 10.6959 65.2798 10.6263 64.9418 10.4805C64.6037 10.3346 64.3303 10.1093 64.1214 9.80433C63.9126 9.49941 63.8082 9.1166 63.8082 8.65589V1.12393ZM71.5639 10.744C70.8116 10.744 70.1636 10.5832 69.62 10.2617C69.0798 9.93691 68.6622 9.48118 68.3672 8.89453C68.0755 8.30457 67.9297 7.61352 67.9297 6.82138C67.9297 6.03918 68.0755 5.34979 68.3672 4.7532C68.6622 4.1566 69.0732 3.69093 69.6001 3.35618C70.1304 3.02143 70.7502 2.85405 71.4595 2.85405C71.8904 2.85405 72.308 2.92531 72.7124 3.06783C73.1167 3.21035 73.4796 3.43407 73.8011 3.73899C74.1226 4.04392 74.3762 4.43999 74.5618 4.9272C74.7474 5.4111 74.8402 5.99941 74.8402 6.69212V7.21911H68.7699V6.10547H73.3835C73.3835 5.71437 73.304 5.36802 73.1449 5.06641C72.9858 4.76148 72.7621 4.52119 72.4737 4.34553C72.1887 4.16986 71.8539 4.08203 71.4695 4.08203C71.0518 4.08203 70.6873 4.18478 70.3757 4.39027C70.0675 4.59245 69.8288 4.8576 69.6598 5.18572C69.4941 5.51053 69.4112 5.86352 69.4112 6.24467V7.1147C69.4112 7.62512 69.5007 8.0593 69.6797 8.41726C69.862 8.77521 70.1155 9.04865 70.4403 9.23757C70.7652 9.42318 71.1446 9.51598 71.5788 9.51598C71.8606 9.51598 72.1174 9.47621 72.3494 9.39666C72.5814 9.3138 72.782 9.19117 72.951 9.02876C73.12 8.86636 73.2493 8.66584 73.3388 8.4272L74.7457 8.68075C74.633 9.09505 74.4309 9.45798 74.1392 9.76953C73.8509 10.0778 73.4879 10.3181 73.0504 10.4904C72.6162 10.6594 72.1207 10.744 71.5639 10.744ZM77.8256 6.05575V10.5898H76.3391V2.95348H77.766V4.19638H77.8604C78.0361 3.79202 78.3112 3.46721 78.6857 3.22195C79.0636 2.97668 79.5392 2.85405 80.1126 2.85405C80.6329 2.85405 81.0887 2.96342 81.4798 3.18217C81.8709 3.39761 82.1741 3.71911 82.3896 4.14666C82.605 4.57422 82.7127 5.10286 82.7127 5.7326V10.5898H81.2262V5.91158C81.2262 5.35807 81.082 4.92554 80.7937 4.61399C80.5053 4.29912 80.1093 4.14169 79.6055 4.14169C79.2608 4.14169 78.9542 4.21626 78.6857 4.36541C78.4206 4.51456 78.2101 4.73331 78.0543 5.02166C77.9019 5.3067 77.8256 5.6514 77.8256 6.05575ZM88.1206 2.95348V4.14666H83.9494V2.95348H88.1206ZM85.068 1.12393H86.5545V8.34766C86.5545 8.63601 86.5976 8.8531 86.6838 8.99893C86.7699 9.14145 86.881 9.23923 87.0169 9.29226C87.1561 9.34197 87.3069 9.36683 87.4693 9.36683C87.5886 9.36683 87.693 9.35855 87.7825 9.34197C87.872 9.3254 87.9416 9.31214 87.9913 9.3022L88.2598 10.5302C88.1736 10.5633 88.051 10.5965 87.8919 10.6296C87.7328 10.6661 87.5339 10.686 87.2953 10.6893C86.9042 10.6959 86.5396 10.6263 86.2015 10.4805C85.8635 10.3346 85.59 10.1093 85.3812 9.80433C85.1724 9.49941 85.068 9.1166 85.068 8.65589V1.12393ZM99.513 10.7738L98.6181 9.88885L101.725 6.7816H93.9199V5.48899H101.725L98.6181 2.38672L99.513 1.4968L104.151 6.1353L99.513 10.7738Z" fill="#E9A708"/>
</svg>
